<svg width="1080" height="1080" viewBox="0 0 1080 1080" fill="none" xmlns="http://www.w3.org/2000/svg">
<path d="M539 81L999 81L999 541V541C744.949 541 539 335.051 539 81V81Z" fill="#F5F4EB"/>
<path d="M539 541V541C791.946 541 999 746.054 999 999V999V999C746.054 999 539 793.946 539 541V541Z" fill="#F5F4EB"/>
<path d="M539 541V541C286.054 541 81 333.946 81 81V81V81C333.946 81 539 288.054 539 541V541Z" fill="#F5F4EB"/>
<path d="M539 982L81 982L81 524V524C333.946 524 539 729.054 539 982V982Z" fill="#F5F4EB"/>
</svg>
